<svg width="36" height="36" viewBox="0 0 36 36" fill="none" xmlns="http://www.w3.org/2000/svg">
<path d="M17.75 13.5012C16.86 13.5012 15.99 13.7651 15.2499 14.2596C14.5099 14.7541 13.9331 15.4569 13.5925 16.2791C13.2519 17.1014 13.1628 18.0062 13.3365 18.8791C13.5101 19.752 13.9387 20.5539 14.568 21.1832C15.1974 21.8125 15.9992 22.2411 16.8721 22.4148C17.745 22.5884 18.6498 22.4993 19.4721 22.1587C20.2943 21.8181 20.9971 21.2413 21.4916 20.5013C21.9861 19.7613 22.25 18.8912 22.25 18.0012C22.2488 16.8081 21.7743 15.6643 20.9306 14.8206C20.087 13.977 18.9431 13.5025 17.75 13.5012ZM17.75 21.0012C17.1567 21.0012 16.5766 20.8253 16.0833 20.4956C15.5899 20.166 15.2054 19.6974 14.9784 19.1493C14.7513 18.6011 14.6919 17.9979 14.8076 17.4159C14.9234 16.834 15.2091 16.2995 15.6287 15.8799C16.0482 15.4603 16.5828 15.1746 17.1647 15.0589C17.7467 14.9431 18.3499 15.0025 18.8981 15.2296C19.4462 15.4566 19.9148 15.8412 20.2444 16.3345C20.5741 16.8279 20.75 17.4079 20.75 18.0012C20.75 18.7969 20.4339 19.5599 19.8713 20.1225C19.3087 20.6851 18.5456 21.0012 17.75 21.0012ZM22.25 8.25122H13.25C11.8581 8.25271 10.5236 8.80631 9.53933 9.79055C8.55509 10.7748 8.00149 12.1093 8 13.5012V22.5012C8.00149 23.8932 8.55509 25.2276 9.53933 26.2119C10.5236 27.1961 11.8581 27.7497 13.25 27.7512H22.25C23.6419 27.7497 24.9764 27.1961 25.9607 26.2119C26.9449 25.2276 27.4985 23.8932 27.5 22.5012V13.5012C27.4985 12.1093 26.9449 10.7748 25.9607 9.79055C24.9764 8.80631 23.6419 8.25271 22.25 8.25122ZM26 22.5012C26 23.4958 25.6049 24.4496 24.9016 25.1529C24.1984 25.8561 23.2446 26.2512 22.25 26.2512H13.25C12.2554 26.2512 11.3016 25.8561 10.5983 25.1529C9.89509 24.4496 9.5 23.4958 9.5 22.5012V13.5012C9.5 12.5067 9.89509 11.5528 10.5983 10.8496C11.3016 10.1463 12.2554 9.75122 13.25 9.75122H22.25C23.2446 9.75122 24.1984 10.1463 24.9016 10.8496C25.6049 11.5528 26 12.5067 26 13.5012V22.5012ZM23.75 13.1262C23.75 13.3487 23.684 13.5662 23.5604 13.7512C23.4368 13.9362 23.2611 14.0804 23.0555 14.1656C22.85 14.2507 22.6238 14.273 22.4055 14.2296C22.1873 14.1862 21.9868 14.0791 21.8295 13.9217C21.6722 13.7644 21.565 13.5639 21.5216 13.3457C21.4782 13.1275 21.5005 12.9013 21.5856 12.6957C21.6708 12.4901 21.815 12.3144 22 12.1908C22.185 12.0672 22.4025 12.0012 22.625 12.0012C22.9234 12.0012 23.2095 12.1197 23.4205 12.3307C23.6315 12.5417 23.75 12.8279 23.75 13.1262Z" fill="#262525"/>
</svg>
