<svg width="36" height="37" viewBox="0 0 36 37" fill="none" xmlns="http://www.w3.org/2000/svg">
<path d="M17.75 8.75122C15.8216 8.75122 13.9366 9.32305 12.3332 10.3944C10.7298 11.4657 9.48013 12.9885 8.74218 14.7701C8.00422 16.5516 7.81114 18.512 8.18735 20.4034C8.56355 22.2947 9.49215 24.0319 10.8557 25.3955C12.2193 26.7591 13.9566 27.6877 15.8479 28.0639C17.7392 28.4401 19.6996 28.247 21.4812 27.509C23.2627 26.7711 24.7855 25.5214 25.8568 23.918C26.9282 22.3147 27.5 20.4296 27.5 18.5012C27.4973 15.9162 26.4692 13.4378 24.6413 11.6099C22.8134 9.78206 20.335 8.75395 17.75 8.75122ZM18.5 26.7165V20.7512H20.75C20.9489 20.7512 21.1397 20.6722 21.2803 20.5316C21.421 20.3909 21.5 20.2001 21.5 20.0012C21.5 19.8023 21.421 19.6115 21.2803 19.4709C21.1397 19.3302 20.9489 19.2512 20.75 19.2512H18.5V17.0012C18.5 16.6034 18.658 16.2219 18.9393 15.9406C19.2206 15.6593 19.6022 15.5012 20 15.5012H21.5C21.6989 15.5012 21.8897 15.4222 22.0303 15.2816C22.171 15.1409 22.25 14.9501 22.25 14.7512C22.25 14.5523 22.171 14.3615 22.0303 14.2209C21.8897 14.0802 21.6989 14.0012 21.5 14.0012H20C19.2044 14.0012 18.4413 14.3173 17.8787 14.8799C17.3161 15.4425 17 16.2056 17 17.0012V19.2512H14.75C14.5511 19.2512 14.3603 19.3302 14.2197 19.4709C14.079 19.6115 14 19.8023 14 20.0012C14 20.2001 14.079 20.3909 14.2197 20.5316C14.3603 20.6722 14.5511 20.7512 14.75 20.7512H17V26.7165C14.8857 26.5235 12.9273 25.5229 11.532 23.9227C10.1367 22.3226 9.41195 20.2462 9.50855 18.1253C9.60515 16.0045 10.5156 14.0025 12.0506 12.5358C13.5856 11.0692 15.627 10.2507 17.75 10.2507C19.873 10.2507 21.9144 11.0692 23.4494 12.5358C24.9844 14.0025 25.8949 16.0045 25.9915 18.1253C26.0881 20.2462 25.3633 22.3226 23.968 23.9227C22.5727 25.5229 20.6143 26.5235 18.5 26.7165Z" fill="#262525"/>
</svg>
