<svg width="40" height="40" viewBox="0 0 40 40" fill="none" xmlns="http://www.w3.org/2000/svg">
<path d="M14.75 21.5H11C10.8011 21.5 10.6103 21.421 10.4697 21.2803C10.329 21.1397 10.25 20.9489 10.25 20.75C10.25 20.5511 10.329 20.3603 10.4697 20.2197C10.6103 20.079 10.8011 20 11 20H14.3488L15.6256 18.0837C15.6941 17.9809 15.7869 17.8965 15.8958 17.8382C16.0048 17.7798 16.1264 17.7493 16.25 17.7493C16.3736 17.7493 16.4952 17.7798 16.6042 17.8382C16.7131 17.8965 16.8059 17.9809 16.8744 18.0837L19.25 21.6462L20.1256 20.3337C20.1942 20.231 20.287 20.1468 20.396 20.0886C20.5049 20.0303 20.6265 19.9999 20.75 20H23C23.1989 20 23.3897 20.079 23.5303 20.2197C23.671 20.3603 23.75 20.5511 23.75 20.75C23.75 20.9489 23.671 21.1397 23.5303 21.2803C23.3897 21.421 23.1989 21.5 23 21.5H21.1512L19.8744 23.4162C19.8059 23.5191 19.7131 23.6035 19.6042 23.6618C19.4952 23.7202 19.3736 23.7507 19.25 23.7507C19.1264 23.7507 19.0048 23.7202 18.8958 23.6618C18.7869 23.6035 18.6941 23.5191 18.6256 23.4162L16.25 19.8519L15.3744 21.1644C15.306 21.2675 15.2133 21.3521 15.1043 21.4106C14.9954 21.4692 14.8737 21.4999 14.75 21.5ZM24.6875 11.75C22.7516 11.75 21.0566 12.5825 20 13.9897C18.9434 12.5825 17.2484 11.75 15.3125 11.75C13.7715 11.7517 12.294 12.3647 11.2044 13.4544C10.1147 14.544 9.50174 16.0215 9.5 17.5625C9.5 17.6328 9.5 17.7031 9.5 17.7734C9.50622 17.9723 9.5912 18.1606 9.73624 18.2969C9.88129 18.4332 10.0745 18.5062 10.2734 18.5C10.4723 18.4938 10.6606 18.4088 10.7969 18.2638C10.9332 18.1187 11.0062 17.9255 11 17.7266C11 17.6722 11 17.6169 11 17.5625C11.0015 16.4192 11.4563 15.3232 12.2647 14.5147C13.0732 13.7063 14.1692 13.2515 15.3125 13.25C17.1359 13.25 18.6669 14.2212 19.3062 15.7812C19.3628 15.9188 19.4589 16.0365 19.5824 16.1193C19.7059 16.2021 19.8513 16.2463 20 16.2463C20.1487 16.2463 20.2941 16.2021 20.4176 16.1193C20.5411 16.0365 20.6372 15.9188 20.6937 15.7812C21.3331 14.2184 22.8641 13.25 24.6875 13.25C25.8308 13.2515 26.9268 13.7063 27.7353 14.5147C28.5437 15.3232 28.9985 16.4192 29 17.5625C29 22.5884 21.71 27.1391 20 28.1375C18.9847 27.5459 16.0034 25.7 13.7487 23.2428C13.6821 23.1702 13.6019 23.1114 13.5126 23.0697C13.4232 23.0281 13.3266 23.0045 13.2281 23.0002C13.1296 22.996 13.0313 23.0111 12.9387 23.0449C12.8461 23.0786 12.7611 23.1303 12.6884 23.1969C12.6158 23.2635 12.557 23.3437 12.5154 23.4331C12.4738 23.5224 12.4501 23.6191 12.4459 23.7175C12.4416 23.816 12.4568 23.9143 12.4905 24.0069C12.5242 24.0995 12.5759 24.1845 12.6425 24.2572C15.5647 27.4447 19.4797 29.5709 19.6447 29.66C19.7539 29.7188 19.876 29.7495 20 29.7495C20.124 29.7495 20.2461 29.7188 20.3553 29.66C20.7697 29.4369 30.5 24.125 30.5 17.5625C30.4983 16.0215 29.8853 14.544 28.7956 13.4544C27.706 12.3647 26.2285 11.7517 24.6875 11.75Z" fill="#262525"/>
</svg>
