<svg width="34" height="35" viewBox="0 0 34 35" fill="none" xmlns="http://www.w3.org/2000/svg">
<path d="M25.5603 16.0639L18.0603 8.56387C17.779 8.28278 17.3977 8.12488 17 8.12488C16.6024 8.12488 16.221 8.28278 15.9397 8.56387L8.4397 16.0639C8.29973 16.2028 8.18878 16.3682 8.1133 16.5503C8.03782 16.7325 7.99931 16.9279 8.00001 17.1251V26.1251C8.00001 26.324 8.07903 26.5148 8.21968 26.6555C8.36033 26.7961 8.5511 26.8751 8.75001 26.8751H14.75C14.9489 26.8751 15.1397 26.7961 15.2803 26.6555C15.421 26.5148 15.5 26.324 15.5 26.1251V20.8751H18.5V26.1251C18.5 26.324 18.579 26.5148 18.7197 26.6555C18.8603 26.7961 19.0511 26.8751 19.25 26.8751H25.25C25.4489 26.8751 25.6397 26.7961 25.7803 26.6555C25.921 26.5148 26 26.324 26 26.1251V17.1251C26.0007 16.9279 25.9622 16.7325 25.8867 16.5503C25.8112 16.3682 25.7003 16.2028 25.5603 16.0639ZM24.5 25.3751H20V20.1251C20 19.9262 19.921 19.7354 19.7803 19.5948C19.6397 19.4541 19.4489 19.3751 19.25 19.3751H14.75C14.5511 19.3751 14.3603 19.4541 14.2197 19.5948C14.079 19.7354 14 19.9262 14 20.1251V25.3751H9.50001V17.1251L17 9.62512L24.5 17.1251V25.3751Z" fill="#262525"/>
</svg>
