<svg width="40" height="41" viewBox="0 0 40 41" fill="none" xmlns="http://www.w3.org/2000/svg">
<path d="M20 15.7512C19.11 15.7512 18.24 16.0151 17.5 16.5096C16.76 17.0041 16.1832 17.7069 15.8426 18.5291C15.502 19.3514 15.4129 20.2562 15.5865 21.1291C15.7601 22.002 16.1887 22.8038 16.8181 23.4332C17.4474 24.0625 18.2492 24.4911 19.1221 24.6647C19.9951 24.8384 20.8999 24.7493 21.7221 24.4087C22.5444 24.0681 23.2472 23.4913 23.7417 22.7513C24.2361 22.0112 24.5 21.1412 24.5 20.2512C24.4988 19.0581 24.0243 17.9142 23.1807 17.0706C22.337 16.2269 21.1931 15.7524 20 15.7512ZM20 23.2512C19.4067 23.2512 18.8267 23.0753 18.3333 22.7456C17.84 22.416 17.4555 21.9474 17.2284 21.3993C17.0013 20.8511 16.9419 20.2479 17.0577 19.6659C17.1734 19.084 17.4592 18.5494 17.8787 18.1299C18.2983 17.7103 18.8328 17.4246 19.4148 17.3088C19.9967 17.1931 20.5999 17.2525 21.1481 17.4796C21.6963 17.7066 22.1648 18.0911 22.4945 18.5845C22.8241 19.0778 23 19.6579 23 20.2512C23 21.0469 22.684 21.8099 22.1214 22.3725C21.5588 22.9351 20.7957 23.2512 20 23.2512ZM28.25 20.4537C28.2538 20.3187 28.2538 20.1837 28.25 20.0487L29.6488 18.3012C29.7221 18.2095 29.7729 18.1018 29.797 17.9868C29.8211 17.8718 29.8179 17.7528 29.7875 17.6393C29.5582 16.7774 29.2152 15.9498 28.7675 15.1784C28.7089 15.0774 28.6276 14.9916 28.5299 14.9276C28.4322 14.8636 28.321 14.8234 28.205 14.81L25.9813 14.5625C25.8888 14.465 25.795 14.3712 25.7 14.2812L25.4375 12.0518C25.424 11.9358 25.3836 11.8245 25.3195 11.7268C25.2554 11.6292 25.1693 11.5478 25.0682 11.4893C24.2965 11.0425 23.4689 10.6998 22.6072 10.4703C22.4937 10.4401 22.3746 10.437 22.2597 10.4613C22.1447 10.4855 22.037 10.5364 21.9454 10.61L20.2025 12.0012C20.0675 12.0012 19.9325 12.0012 19.7975 12.0012L18.05 10.6053C17.9583 10.5319 17.8506 10.4812 17.7356 10.4571C17.6207 10.433 17.5017 10.4362 17.3882 10.4665C16.5264 10.6962 15.6988 11.0392 14.9272 11.4865C14.8263 11.5451 14.7404 11.6265 14.6764 11.7242C14.6125 11.8218 14.5722 11.933 14.5588 12.049L14.3113 14.2765C14.2138 14.3696 14.12 14.4634 14.03 14.5578L11.8007 14.8137C11.6846 14.8272 11.5733 14.8676 11.4757 14.9318C11.378 14.9959 11.2967 15.082 11.2382 15.1831C10.7913 15.9548 10.4486 16.7823 10.2191 17.644C10.1889 17.7576 10.1858 17.8766 10.2101 17.9916C10.2344 18.1066 10.2853 18.2142 10.3588 18.3059L11.75 20.0487C11.75 20.1837 11.75 20.3187 11.75 20.4537L10.3541 22.2012C10.2808 22.293 10.23 22.4007 10.2059 22.5156C10.1818 22.6306 10.185 22.7496 10.2154 22.8631C10.4447 23.725 10.7877 24.5526 11.2354 25.324C11.294 25.425 11.3753 25.5108 11.473 25.5748C11.5707 25.6388 11.6819 25.6791 11.7979 25.6925L14.0216 25.94C14.1147 26.0375 14.2085 26.1312 14.3029 26.2212L14.5625 28.4506C14.576 28.5666 14.6165 28.6779 14.6806 28.7756C14.7447 28.8732 14.8308 28.9546 14.9319 29.0131C15.7036 29.4599 16.5311 29.8026 17.3929 30.0321C17.5064 30.0623 17.6255 30.0654 17.7404 30.0412C17.8554 30.0169 17.9631 29.966 18.0547 29.8925L19.7975 28.5012C19.9325 28.505 20.0675 28.505 20.2025 28.5012L21.95 29.9C22.0418 29.9733 22.1495 30.0241 22.2645 30.0482C22.3794 30.0723 22.4984 30.069 22.6119 30.0387C23.4739 29.8094 24.3014 29.4664 25.0729 29.0187C25.1738 28.9601 25.2597 28.8787 25.3236 28.7811C25.3876 28.6834 25.4279 28.5722 25.4413 28.4562L25.6888 26.2325C25.7863 26.14 25.88 26.0462 25.97 25.9512L28.1994 25.6887C28.3155 25.6752 28.4268 25.6348 28.5244 25.5706C28.6221 25.5065 28.7034 25.4205 28.7619 25.3193C29.2088 24.5476 29.5515 23.7201 29.781 22.8584C29.8112 22.7448 29.8143 22.6258 29.79 22.5108C29.7657 22.3958 29.7148 22.2882 29.6413 22.1965L28.25 20.4537ZM26.7407 19.8443C26.7566 20.1153 26.7566 20.3871 26.7407 20.6581C26.7295 20.8436 26.7876 21.0267 26.9038 21.1718L28.2341 22.834C28.0815 23.3191 27.886 23.7897 27.65 24.2403L25.5313 24.4803C25.3468 24.5007 25.1764 24.5889 25.0532 24.7278C24.8727 24.9307 24.6805 25.1229 24.4775 25.3034C24.3387 25.4266 24.2505 25.597 24.23 25.7815L23.9947 27.8984C23.5443 28.1345 23.0736 28.3299 22.5885 28.4825L20.9254 27.1521C20.7923 27.0458 20.627 26.9879 20.4566 26.9881H20.4116C20.1406 27.004 19.8689 27.004 19.5979 26.9881C19.4123 26.9769 19.2292 27.035 19.0841 27.1512L17.4172 28.4825C16.9321 28.3298 16.4615 28.1343 16.011 27.8984L15.771 25.7825C15.7505 25.5979 15.6623 25.4276 15.5235 25.3043C15.3205 25.1239 15.1283 24.9317 14.9479 24.7287C14.8246 24.5899 14.6542 24.5017 14.4697 24.4812L12.3529 24.245C12.1168 23.7945 11.9213 23.3239 11.7688 22.8387L13.0991 21.1756C13.2153 21.0305 13.2734 20.8474 13.2622 20.6618C13.2463 20.3908 13.2463 20.1191 13.2622 19.8481C13.2734 19.6625 13.2153 19.4794 13.0991 19.3343L11.7688 17.6684C11.9214 17.1833 12.1169 16.7127 12.3529 16.2621L14.4688 16.0221C14.6533 16.0017 14.8237 15.9135 14.9469 15.7746C15.1274 15.5717 15.3196 15.3795 15.5225 15.199C15.6619 15.0757 15.7505 14.9049 15.771 14.72L16.0063 12.604C16.4568 12.3679 16.9274 12.1725 17.4125 12.02L19.0757 13.3503C19.2208 13.4664 19.4039 13.5246 19.5894 13.5134C19.8604 13.4975 20.1322 13.4975 20.4032 13.5134C20.5887 13.5246 20.7718 13.4664 20.9169 13.3503L22.5829 12.02C23.068 12.1726 23.5386 12.3681 23.9891 12.604L24.2291 14.72C24.2496 14.9045 24.3378 15.0748 24.4766 15.1981C24.6796 15.3785 24.8718 15.5707 25.0522 15.7737C25.1755 15.9125 25.3458 16.0007 25.5304 16.0212L27.6472 16.2565C27.8833 16.707 28.0788 17.1776 28.2313 17.6628L26.901 19.3259C26.7837 19.4722 26.7255 19.6572 26.7379 19.8443H26.7407Z" fill="#262525"/>
</svg>
