<svg width="24" height="24" viewBox="0 0 24 24" fill="none" xmlns="http://www.w3.org/2000/svg">
<path d="M11.75 2.01057C9.82164 2.01057 7.93657 2.58239 6.33319 3.65374C4.72982 4.72508 3.48013 6.24782 2.74218 8.0294C2.00422 9.81098 1.81114 11.7714 2.18735 13.6627C2.56355 15.554 3.49215 17.2913 4.85571 18.6549C6.21927 20.0184 7.95656 20.947 9.84787 21.3232C11.7392 21.6994 13.6996 21.5063 15.4812 20.7684C17.2627 20.0304 18.7855 18.7808 19.8568 17.1774C20.9282 15.574 21.5 13.6889 21.5 11.7606C21.497 9.17562 20.4688 6.6974 18.641 4.86956C16.8132 3.04173 14.335 2.01354 11.75 2.01057ZM20 11.7606C20.0007 12.5214 19.8956 13.2786 19.6878 14.0106H16.0775C16.3075 12.5194 16.3075 11.0017 16.0775 9.51057H19.6878C19.8956 10.2425 20.0007 10.9997 20 11.7606ZM9.3125 15.5106H14.1875C13.7072 17.0842 12.8735 18.5273 11.75 19.7293C10.627 18.527 9.79326 17.084 9.3125 15.5106ZM8.94688 14.0106C8.68939 12.5216 8.68939 10.9995 8.94688 9.51057H14.5606C14.8181 10.9995 14.8181 12.5216 14.5606 14.0106H8.94688ZM3.5 11.7606C3.49935 10.9997 3.60442 10.2425 3.81219 9.51057H7.4225C7.1925 11.0017 7.1925 12.5194 7.4225 14.0106H3.81219C3.60442 13.2786 3.49935 12.5214 3.5 11.7606ZM14.1875 8.01057H9.3125C9.79277 6.43689 10.6265 4.99386 11.75 3.79182C12.8731 4.99418 13.7067 6.4371 14.1875 8.01057ZM19.0934 8.01057H15.7541C15.3332 6.46642 14.6238 5.01589 13.6634 3.73557C14.8238 4.01431 15.9102 4.54067 16.848 5.27856C17.7859 6.01644 18.5532 6.94841 19.0972 8.01057H19.0934ZM9.83657 3.73557C8.87619 5.01589 8.16683 6.46642 7.74594 8.01057H4.40282C4.94682 6.94841 5.71407 6.01644 6.65196 5.27856C7.58985 4.54067 8.67621 4.01431 9.83657 3.73557ZM4.40282 15.5106H7.74594C8.16683 17.0547 8.87619 18.5052 9.83657 19.7856C8.67621 19.5068 7.58985 18.9805 6.65196 18.2426C5.71407 17.5047 4.94682 16.5727 4.40282 15.5106ZM13.6634 19.7856C14.6238 18.5052 15.3332 17.0547 15.7541 15.5106H19.0972C18.5532 16.5727 17.7859 17.5047 16.848 18.2426C15.9102 18.9805 14.8238 19.5068 13.6634 19.7856Z" fill="#9C9898"/>
</svg>
