<svg width="40" height="40" viewBox="0 0 40 40" fill="none" xmlns="http://www.w3.org/2000/svg">
<path d="M29.7498 20.8119C29.5904 22.6643 28.9053 24.4328 27.7751 25.9091C26.6448 27.3854 25.1164 28.5083 23.3697 29.1455C21.623 29.7827 19.7306 29.9077 17.9152 29.506C16.0998 29.1042 14.4369 28.1923 13.1222 26.8776C11.8075 25.5628 10.8956 23.9 10.4938 22.0846C10.092 20.2692 10.2171 18.3768 10.8543 16.6301C11.4915 14.8834 12.6143 13.355 14.0907 12.2247C15.567 11.0944 17.3354 10.4093 19.1879 10.25C19.2864 10.2419 19.3855 10.2532 19.4796 10.2834C19.5737 10.3136 19.661 10.362 19.7364 10.4259C19.8117 10.4898 19.8738 10.5679 19.919 10.6558C19.9642 10.7437 19.9916 10.8396 19.9998 10.9381C20.0079 11.0366 19.9965 11.1357 19.9664 11.2298C19.9362 11.3239 19.8878 11.4112 19.8239 11.4866C19.76 11.562 19.6818 11.624 19.594 11.6692C19.5061 11.7144 19.4101 11.7419 19.3116 11.75C17.7438 11.8847 16.247 12.4644 14.9974 13.421C13.7478 14.3775 12.7974 15.671 12.258 17.1494C11.7186 18.6277 11.6127 20.2293 11.9527 21.7658C12.2927 23.3023 13.0645 24.7097 14.1773 25.8225C15.29 26.9352 16.6974 27.707 18.2339 28.047C19.7704 28.387 21.3721 28.2811 22.8504 27.7417C24.3287 27.2024 25.6223 26.252 26.5788 25.0024C27.5353 23.7528 28.1151 22.256 28.2498 20.6881C28.2662 20.4892 28.3609 20.3049 28.5132 20.1759C28.6655 20.0469 28.8627 19.9836 29.0616 20C29.2606 20.0164 29.4448 20.1111 29.5739 20.2634C29.7029 20.4157 29.7662 20.6129 29.7498 20.8119ZM19.2498 14.75V20C19.2498 20.1989 19.3288 20.3897 19.4694 20.5303C19.6101 20.671 19.8009 20.75 19.9998 20.75H25.2498C25.4487 20.75 25.6395 20.671 25.7801 20.5303C25.9208 20.3897 25.9998 20.1989 25.9998 20C25.9998 19.8011 25.9208 19.6103 25.7801 19.4697C25.6395 19.329 25.4487 19.25 25.2498 19.25H20.7498V14.75C20.7498 14.5511 20.6708 14.3603 20.5301 14.2197C20.3895 14.079 20.1987 14 19.9998 14C19.8009 14 19.6101 14.079 19.4694 14.2197C19.3288 14.3603 19.2498 14.5511 19.2498 14.75ZM22.9998 12.5C23.2223 12.5 23.4398 12.434 23.6248 12.3104C23.8098 12.1868 23.954 12.0111 24.0391 11.8055C24.1243 11.5999 24.1466 11.3737 24.1032 11.1555C24.0597 10.9373 23.9526 10.7368 23.7953 10.5795C23.6379 10.4222 23.4375 10.315 23.2192 10.2716C23.001 10.2282 22.7748 10.2505 22.5693 10.3356C22.3637 10.4208 22.188 10.565 22.0644 10.75C21.9408 10.935 21.8748 11.1525 21.8748 11.375C21.8748 11.6734 21.9933 11.9595 22.2043 12.1705C22.4153 12.3815 22.7014 12.5 22.9998 12.5ZM26.3748 14.75C26.5973 14.75 26.8148 14.684 26.9998 14.5604C27.1848 14.4368 27.329 14.2611 27.4141 14.0555C27.4993 13.8499 27.5216 13.6237 27.4782 13.4055C27.4347 13.1873 27.3276 12.9868 27.1703 12.8295C27.0129 12.6722 26.8125 12.565 26.5942 12.5216C26.376 12.4782 26.1498 12.5005 25.9443 12.5856C25.7387 12.6708 25.563 12.815 25.4394 13C25.3158 13.185 25.2498 13.4025 25.2498 13.625C25.2498 13.9234 25.3683 14.2095 25.5793 14.4205C25.7903 14.6315 26.0764 14.75 26.3748 14.75ZM28.6248 18.125C28.8473 18.125 29.0648 18.059 29.2498 17.9354C29.4348 17.8118 29.579 17.6361 29.6641 17.4305C29.7493 17.2249 29.7716 16.9987 29.7282 16.7805C29.6847 16.5623 29.5776 16.3618 29.4203 16.2045C29.2629 16.0472 29.0625 15.94 28.8442 15.8966C28.626 15.8532 28.3998 15.8755 28.1943 15.9606C27.9887 16.0458 27.813 16.19 27.6894 16.375C27.5658 16.56 27.4998 16.7775 27.4998 17C27.4998 17.2984 27.6183 17.5845 27.8293 17.7955C28.0403 18.0065 28.3264 18.125 28.6248 18.125Z" fill="#262525"/>
</svg>
