<svg width="34" height="35" viewBox="0 0 34 35" fill="none" xmlns="http://www.w3.org/2000/svg">
<path d="M15.5 26.0012C15.5 26.2001 15.421 26.3909 15.2803 26.5316C15.1397 26.6722 14.9489 26.7512 14.75 26.7512H8.75C8.55109 26.7512 8.36032 26.6722 8.21967 26.5316C8.07902 26.3909 8 26.2001 8 26.0012V9.50122C8 9.30231 8.07902 9.11154 8.21967 8.97089C8.36032 8.83024 8.55109 8.75122 8.75 8.75122H14.75C14.9489 8.75122 15.1397 8.83024 15.2803 8.97089C15.421 9.11154 15.5 9.30231 15.5 9.50122C15.5 9.70013 15.421 9.8909 15.2803 10.0316C15.1397 10.1722 14.9489 10.2512 14.75 10.2512H9.5V25.2512H14.75C14.9489 25.2512 15.1397 25.3302 15.2803 25.4709C15.421 25.6115 15.5 25.8023 15.5 26.0012ZM25.7806 17.2206L22.0306 13.4706C21.8899 13.3299 21.699 13.2508 21.5 13.2508C21.301 13.2508 21.1101 13.3299 20.9694 13.4706C20.8286 13.6113 20.7496 13.8022 20.7496 14.0012C20.7496 14.2002 20.8286 14.3911 20.9694 14.5318L23.4397 17.0012H14.75C14.5511 17.0012 14.3603 17.0802 14.2197 17.2209C14.079 17.3615 14 17.5523 14 17.7512C14 17.9501 14.079 18.1409 14.2197 18.2816C14.3603 18.4222 14.5511 18.5012 14.75 18.5012H23.4397L20.9694 20.9706C20.8286 21.1113 20.7496 21.3022 20.7496 21.5012C20.7496 21.7002 20.8286 21.8911 20.9694 22.0318C21.1101 22.1726 21.301 22.2516 21.5 22.2516C21.699 22.2516 21.8899 22.1726 22.0306 22.0318L25.7806 18.2818C25.8504 18.2122 25.9057 18.1295 25.9434 18.0384C25.9812 17.9474 26.0006 17.8498 26.0006 17.7512C26.0006 17.6527 25.9812 17.5551 25.9434 17.464C25.9057 17.373 25.8504 17.2902 25.7806 17.2206Z" fill="#262525"/>
</svg>
