<svg width="155" height="40" viewBox="0 0 155 40" fill="none" xmlns="http://www.w3.org/2000/svg">
<g opacity="0.8">
<path d="M4.53835 27L0.37642 12.4545H3.7358L6.14347 22.5611H6.2642L8.92045 12.4545H11.7969L14.446 22.5824H14.5739L16.9815 12.4545H20.3409L16.179 27H13.1818L10.4119 17.4901H10.2983L7.53551 27H4.53835ZM35.8736 27V12.4545H41.6122C42.7107 12.4545 43.6482 12.651 44.4247 13.044C45.206 13.4323 45.8002 13.9839 46.2074 14.6989C46.6193 15.4091 46.8253 16.2448 46.8253 17.206C46.8253 18.1719 46.617 19.0028 46.2003 19.6989C45.7836 20.3902 45.1799 20.9205 44.3892 21.2898C43.6032 21.6591 42.6515 21.8438 41.5341 21.8438H37.6918V19.3722H41.0369C41.6241 19.3722 42.1117 19.2917 42.5 19.1307C42.8883 18.9697 43.1771 18.7282 43.3665 18.4062C43.5606 18.0843 43.6577 17.6842 43.6577 17.206C43.6577 16.723 43.5606 16.3158 43.3665 15.9844C43.1771 15.6529 42.8859 15.402 42.4929 15.2315C42.1046 15.0563 41.6146 14.9688 41.0227 14.9688H38.9489V27H35.8736ZM43.7287 20.3807L47.3438 27H43.9489L40.4119 20.3807H43.7287ZM48.9986 27V12.4545H52.0739V24.4645H58.3097V27H48.9986ZM65.5025 27H60.3462V12.4545H65.5451C67.0082 12.4545 68.2676 12.7457 69.3235 13.3281C70.3794 13.9058 71.1914 14.7367 71.7596 15.821C72.3325 16.9053 72.619 18.2027 72.619 19.7131C72.619 21.2282 72.3325 22.5303 71.7596 23.6193C71.1914 24.7083 70.3746 25.544 69.3093 26.1264C68.2487 26.7088 66.9798 27 65.5025 27ZM63.4215 24.3651H65.3746C66.2837 24.3651 67.0484 24.2041 67.6687 23.8821C68.2937 23.5554 68.7624 23.0511 69.0749 22.3693C69.3922 21.6828 69.5508 20.7973 69.5508 19.7131C69.5508 18.6383 69.3922 17.7599 69.0749 17.0781C68.7624 16.3963 68.296 15.8944 67.6758 15.5724C67.0555 15.2505 66.2908 15.0895 65.3817 15.0895H63.4215V24.3651Z" fill="black"/>
<path d="M32.1181 14.0531C31.52 13.4058 30.8086 12.8913 30.0246 12.539C29.2406 12.1867 28.3995 12.0035 27.5494 12H27.5C25.7761 12 24.1228 12.7337 22.9038 14.0398C21.6848 15.3458 21 17.1172 21 18.9643V22.7143C21 23.1405 21.158 23.5493 21.4393 23.8507C21.7206 24.1521 22.1022 24.3214 22.5 24.3214H23.5C23.8978 24.3214 24.2793 24.1521 24.5606 23.8507C24.842 23.5493 25 23.1405 25 22.7143V20.0357C25 19.6095 24.842 19.2007 24.5606 18.8993C24.2793 18.5979 23.8978 18.4286 23.5 18.4286H22.0225C22.1189 17.3116 22.5105 16.2471 23.1514 15.3601C23.7922 14.473 24.6558 13.8 25.6409 13.42C26.626 13.04 27.6918 12.9687 28.7133 13.2145C29.7349 13.4603 30.6699 14.013 31.4087 14.8078C32.3118 15.7803 32.8672 17.0619 32.9781 18.4286H31.5C31.1021 18.4286 30.7206 18.5979 30.4393 18.8993C30.158 19.2007 30 19.6095 30 20.0357V22.7143C30 23.1405 30.158 23.5493 30.4393 23.8507C30.7206 24.1521 31.1021 24.3214 31.5 24.3214H33C33 24.7477 32.8419 25.1565 32.5606 25.4579C32.2793 25.7592 31.8978 25.9286 31.5 25.9286H28C27.8674 25.9286 27.7402 25.985 27.6464 26.0855C27.5527 26.1859 27.5 26.3222 27.5 26.4643C27.5 26.6064 27.5527 26.7426 27.6464 26.8431C27.7402 26.9436 27.8674 27 28 27H31.5C32.163 27 32.7989 26.7178 33.2677 26.2155C33.7366 25.7131 34 25.0318 34 24.3214V18.9643C34.0032 18.0533 33.8387 17.1506 33.5157 16.3078C33.1928 15.4651 32.7179 14.6989 32.1181 14.0531ZM23.5 19.5C23.6326 19.5 23.7598 19.5564 23.8535 19.6569C23.9473 19.7574 24 19.8936 24 20.0357V22.7143C24 22.8564 23.9473 22.9926 23.8535 23.0931C23.7598 23.1936 23.6326 23.25 23.5 23.25H22.5C22.3674 23.25 22.2402 23.1936 22.1464 23.0931C22.0527 22.9926 22 22.8564 22 22.7143V19.5H23.5ZM31.5 23.25C31.3674 23.25 31.2402 23.1936 31.1464 23.0931C31.0526 22.9926 31 22.8564 31 22.7143V20.0357C31 19.8936 31.0526 19.7574 31.1464 19.6569C31.2402 19.5564 31.3674 19.5 31.5 19.5H33V23.25H31.5Z" fill="#F8850A"/>
<path d="M86.2642 27V12.4545H92.0028C93.1013 12.4545 94.0388 12.651 94.8153 13.044C95.5966 13.4323 96.1908 13.9839 96.598 14.6989C97.0099 15.4091 97.2159 16.2448 97.2159 17.206C97.2159 18.1719 97.0076 19.0028 96.5909 19.6989C96.1742 20.3902 95.5705 20.9205 94.7798 21.2898C93.9938 21.6591 93.0421 21.8438 91.9247 21.8438H88.0824V19.3722H91.4276C92.0147 19.3722 92.5024 19.2917 92.8906 19.1307C93.2789 18.9697 93.5677 18.7282 93.7571 18.4062C93.9512 18.0843 94.0483 17.6842 94.0483 17.206C94.0483 16.723 93.9512 16.3158 93.7571 15.9844C93.5677 15.6529 93.2765 15.402 92.8835 15.2315C92.4953 15.0563 92.0052 14.9688 91.4134 14.9688H89.3395V27H86.2642ZM94.1193 20.3807L97.7344 27H94.3395L90.8026 20.3807H94.1193ZM101.896 27H98.6009L103.622 12.4545H107.585L112.599 27H109.304L105.661 15.7784H105.547L101.896 27ZM101.69 21.2827H109.474V23.6832H101.69V21.2827ZM119.506 27H114.35V12.4545H119.549C121.012 12.4545 122.272 12.7457 123.327 13.3281C124.383 13.9058 125.195 14.7367 125.763 15.821C126.336 16.9053 126.623 18.2027 126.623 19.7131C126.623 21.2282 126.336 22.5303 125.763 23.6193C125.195 24.7083 124.379 25.544 123.313 26.1264C122.253 26.7088 120.984 27 119.506 27ZM117.425 24.3651H119.379C120.288 24.3651 121.052 24.2041 121.673 23.8821C122.298 23.5554 122.766 23.0511 123.079 22.3693C123.396 21.6828 123.555 20.7973 123.555 19.7131C123.555 18.6383 123.396 17.7599 123.079 17.0781C122.766 16.3963 122.3 15.8944 121.68 15.5724C121.059 15.2505 120.295 15.0895 119.386 15.0895H117.425V24.3651ZM131.976 12.4545V27H128.901V12.4545H131.976ZM147.873 19.7273C147.873 21.3134 147.572 22.6629 146.971 23.7756C146.374 24.8883 145.56 25.7382 144.528 26.3253C143.5 26.9077 142.345 27.1989 141.062 27.1989C139.769 27.1989 138.609 26.9053 137.582 26.3182C136.554 25.7311 135.742 24.8812 135.146 23.7685C134.549 22.6558 134.251 21.3087 134.251 19.7273C134.251 18.1411 134.549 16.7917 135.146 15.679C135.742 14.5663 136.554 13.7187 137.582 13.1364C138.609 12.5492 139.769 12.2557 141.062 12.2557C142.345 12.2557 143.5 12.5492 144.528 13.1364C145.56 13.7187 146.374 14.5663 146.971 15.679C147.572 16.7917 147.873 18.1411 147.873 19.7273ZM144.755 19.7273C144.755 18.6998 144.601 17.8333 144.293 17.1278C143.99 16.4223 143.562 15.8873 143.008 15.5227C142.454 15.1581 141.805 14.9759 141.062 14.9759C140.318 14.9759 139.67 15.1581 139.116 15.5227C138.562 15.8873 138.131 16.4223 137.823 17.1278C137.52 17.8333 137.369 18.6998 137.369 19.7273C137.369 20.7547 137.52 21.6212 137.823 22.3267C138.131 23.0322 138.562 23.5672 139.116 23.9318C139.67 24.2964 140.318 24.4787 141.062 24.4787C141.805 24.4787 142.454 24.2964 143.008 23.9318C143.562 23.5672 143.99 23.0322 144.293 22.3267C144.601 21.6212 144.755 20.7547 144.755 19.7273Z" fill="black"/>
</g>
</svg>
