<svg width="22" height="15" viewBox="0 0 22 15" fill="none" xmlns="http://www.w3.org/2000/svg">
<path d="M21.0628 6.24977L12.795 0.984767C12.57 0.840926 12.3105 0.760121 12.0437 0.750789C11.7768 0.741458 11.5123 0.803942 11.2778 0.931718C11.0434 1.05949 10.8475 1.24788 10.7107 1.4772C10.5738 1.70651 10.5011 1.96836 10.5 2.23539V5.73227L3.045 0.984767C2.82002 0.840926 2.56054 0.760121 2.29367 0.750789C2.0268 0.741458 1.76232 0.803942 1.52784 0.931718C1.29336 1.05949 1.09748 1.24788 0.960657 1.4772C0.823834 1.70651 0.751083 1.96836 0.75 2.23539V12.7654C0.751387 13.0323 0.824326 13.294 0.961218 13.5231C1.09811 13.7522 1.29394 13.9405 1.52832 14.0682C1.76269 14.1959 2.02703 14.2584 2.29378 14.2493C2.56054 14.2401 2.81996 14.1595 3.045 14.016L10.5 9.26852V12.7654C10.5014 13.0323 10.5743 13.294 10.7112 13.5231C10.8481 13.7522 11.0439 13.9405 11.2783 14.0682C11.5127 14.1959 11.777 14.2584 12.0438 14.2493C12.3105 14.2401 12.57 14.1595 12.795 14.016L21.0628 8.75102C21.2735 8.61732 21.4469 8.43259 21.5671 8.21396C21.6873 7.99533 21.7503 7.74988 21.7503 7.50039C21.7503 7.2509 21.6873 7.00546 21.5671 6.78682C21.4469 6.56819 21.2735 6.38346 21.0628 6.24977ZM2.25 12.7448V2.25696L10.4831 7.50039L2.25 12.7448ZM12 12.7448V2.25696L20.2331 7.50039L12 12.7448Z" fill="black"/>
</svg>
