<svg width="17" height="21" viewBox="0 0 17 21" fill="none" xmlns="http://www.w3.org/2000/svg">
<path d="M16.0375 9.23342L2.53 0.970292C2.30227 0.830842 2.04144 0.754713 1.77445 0.749769C1.50746 0.744825 1.24399 0.811244 1.01125 0.942167C0.780728 1.07106 0.588696 1.25902 0.454904 1.48673C0.321111 1.71445 0.250385 1.97368 0.25 2.23779V18.7622C0.251737 19.1583 0.410719 19.5376 0.691997 19.8166C0.973276 20.0956 1.35383 20.2515 1.75 20.25C2.02652 20.2499 2.29767 20.1736 2.53375 20.0297L16.0375 11.7665C16.2546 11.6342 16.434 11.4483 16.5584 11.2267C16.6829 11.0051 16.7483 10.7551 16.7483 10.5009C16.7483 10.2467 16.6829 9.99678 16.5584 9.77514C16.434 9.5535 16.2546 9.36759 16.0375 9.23529V9.23342ZM1.75 18.7444V2.24998L15.2341 10.5L1.75 18.7444Z" fill="black"/>
</svg>
