<svg width="22" height="15" viewBox="0 0 22 15" fill="none" xmlns="http://www.w3.org/2000/svg">
<path d="M20.4783 0.937526C20.2431 0.808925 19.9777 0.745705 19.7098 0.754443C19.4418 0.763182 19.1812 0.84356 18.9548 0.987214L11.4998 5.7319V2.23503C11.4987 1.96799 11.426 1.70615 11.2892 1.47683C11.1523 1.24751 10.9565 1.05913 10.722 0.931352C10.4875 0.803576 10.223 0.741091 9.95615 0.750423C9.68928 0.759754 9.42981 0.840559 9.20482 0.984401L0.937012 6.2494C0.726367 6.38309 0.552904 6.56783 0.432716 6.78646C0.312529 7.00509 0.249512 7.25054 0.249512 7.50003C0.249512 7.74952 0.312529 7.99496 0.432716 8.21359C0.552904 8.43223 0.726367 8.61696 0.937012 8.75065L9.20482 14.0157C9.42981 14.1595 9.68928 14.2403 9.95615 14.2496C10.223 14.259 10.4875 14.1965 10.722 14.0687C10.9565 13.9409 11.1523 13.7525 11.2892 13.5232C11.426 13.2939 11.4987 13.0321 11.4998 12.765V9.26815L18.9548 14.0157C19.1798 14.1595 19.4393 14.2403 19.7062 14.2496C19.973 14.259 20.2375 14.1965 20.472 14.0687C20.7065 13.9409 20.9023 13.7525 21.0392 13.5232C21.176 13.2939 21.2487 13.0321 21.2498 12.765V2.23503C21.249 1.96951 21.177 1.70906 21.0413 1.48085C20.9056 1.25263 20.7112 1.065 20.4783 0.937526ZM9.99982 12.7435L1.7667 7.50003L9.99982 2.25565V12.7435ZM19.7498 12.7435L11.5167 7.50003L19.7498 2.25565V12.7435Z" fill="black"/>
</svg>
