<svg width="25" height="25" viewBox="0 0 25 25" fill="none" xmlns="http://www.w3.org/2000/svg">
<path d="M22.5301 17.2194C22.5999 17.289 22.6552 17.3717 22.6929 17.4628C22.7307 17.5538 22.7501 17.6514 22.7501 17.75C22.7501 17.8486 22.7307 17.9461 22.6929 18.0372C22.6552 18.1282 22.5999 18.211 22.5301 18.2806L20.2801 20.5306C20.1394 20.6713 19.9485 20.7504 19.7495 20.7504C19.5505 20.7504 19.3596 20.6713 19.2189 20.5306C19.0782 20.3899 18.9991 20.199 18.9991 20C18.9991 19.801 19.0782 19.6101 19.2189 19.4694L20.1892 18.5H19.0876C18.0134 18.4991 16.9548 18.2422 15.9996 17.7507C15.0443 17.2591 14.22 16.5471 13.5948 15.6734L9.68357 10.1984C9.1973 9.51898 8.55613 8.96516 7.8132 8.58285C7.07026 8.20054 6.24692 8.00074 5.41139 7.99999H3.24951C3.0506 7.99999 2.85983 7.92097 2.71918 7.78032C2.57853 7.63967 2.49951 7.4489 2.49951 7.24999C2.49951 7.05108 2.57853 6.86031 2.71918 6.71966C2.85983 6.57901 3.0506 6.49999 3.24951 6.49999H5.41139C6.48566 6.50088 7.54425 6.75774 8.49947 7.24929C9.45469 7.74084 10.279 8.45293 10.9042 9.32655L14.8154 14.8016C15.3017 15.481 15.9429 16.0348 16.6858 16.4171C17.4288 16.7994 18.2521 16.9992 19.0876 17H20.1892L19.2189 16.0306C19.0782 15.8899 18.9991 15.699 18.9991 15.5C18.9991 15.301 19.0782 15.1101 19.2189 14.9694C19.3596 14.8286 19.5505 14.7496 19.7495 14.7496C19.9485 14.7496 20.1394 14.8286 20.2801 14.9694L22.5301 17.2194ZM13.6558 10.5312C13.7359 10.5885 13.8265 10.6294 13.9225 10.6516C14.0185 10.6738 14.1178 10.6769 14.215 10.6607C14.3122 10.6446 14.4052 10.6094 14.4887 10.5572C14.5723 10.5051 14.6448 10.437 14.702 10.3569L14.8145 10.2003C15.3007 9.52038 15.9419 8.96612 16.685 8.58347C17.4282 8.20082 18.2518 8.0008 19.0876 7.99999H20.1892L19.2189 8.96936C19.0782 9.1101 18.9991 9.30097 18.9991 9.49999C18.9991 9.69901 19.0782 9.88988 19.2189 10.0306C19.3596 10.1713 19.5505 10.2504 19.7495 10.2504C19.9485 10.2504 20.1394 10.1713 20.2801 10.0306L22.5301 7.78062C22.5999 7.71096 22.6552 7.62824 22.6929 7.53719C22.7307 7.44615 22.7501 7.34855 22.7501 7.24999C22.7501 7.15143 22.7307 7.05383 22.6929 6.96278C22.6552 6.87174 22.5999 6.78902 22.5301 6.71936L20.2801 4.46936C20.1394 4.32863 19.9485 4.24957 19.7495 4.24957C19.5505 4.24957 19.3596 4.32863 19.2189 4.46936C19.0782 4.6101 18.9991 4.80097 18.9991 4.99999C18.9991 5.19901 19.0782 5.38988 19.2189 5.53061L20.1892 6.49999H19.0876C18.0134 6.50088 16.9548 6.75774 15.9996 7.24929C15.0443 7.74084 14.22 8.45293 13.5948 9.32655L13.4823 9.48311C13.4247 9.56327 13.3835 9.654 13.3611 9.75011C13.3386 9.84621 13.3354 9.94581 13.3515 10.0432C13.3676 10.1406 13.4028 10.2338 13.455 10.3175C13.5072 10.4013 13.5754 10.4739 13.6558 10.5312ZM10.8433 14.4687C10.7631 14.4115 10.6725 14.3706 10.5765 14.3484C10.4806 14.3261 10.3812 14.323 10.284 14.3392C10.1869 14.3554 10.0939 14.3906 10.0103 14.4427C9.92673 14.4949 9.85426 14.563 9.79701 14.6431L9.68451 14.7997C9.19834 15.4796 8.55712 16.0339 7.814 16.4165C7.07087 16.7992 6.24724 16.9992 5.41139 17H3.24951C3.0506 17 2.85983 17.079 2.71918 17.2197C2.57853 17.3603 2.49951 17.5511 2.49951 17.75C2.49951 17.9489 2.57853 18.1397 2.71918 18.2803C2.85983 18.421 3.0506 18.5 3.24951 18.5H5.41139C6.48566 18.4991 7.54425 18.2422 8.49947 17.7507C9.45469 17.2591 10.279 16.5471 10.9042 15.6734L11.0167 15.5169C11.0743 15.4367 11.1155 15.346 11.1379 15.2499C11.1604 15.1538 11.1637 15.0542 11.1476 14.9568C11.1314 14.8594 11.0963 14.7662 11.0441 14.6824C10.9918 14.5987 10.9236 14.5261 10.8433 14.4687Z" fill="black"/>
</svg>
