<svg width="37" height="36" viewBox="0 0 37 36" fill="none" xmlns="http://www.w3.org/2000/svg">
<path d="M28.0406 26.2401L23.3465 21.547C24.7071 19.9136 25.3855 17.8185 25.2407 15.6977C25.0959 13.5768 24.139 11.5934 22.5691 10.1601C20.9992 8.72674 18.9371 7.95383 16.8119 8.00213C14.6866 8.05043 12.6618 8.91622 11.1586 10.4194C9.65548 11.9226 8.78969 13.9474 8.74139 16.0726C8.69309 18.1979 9.466 20.26 10.8993 21.8299C12.3327 23.3998 14.3161 24.3566 16.4369 24.5014C18.5578 24.6462 20.6528 23.9678 22.2862 22.6073L26.9794 27.3013C27.049 27.371 27.1318 27.4263 27.2228 27.464C27.3139 27.5017 27.4114 27.5211 27.51 27.5211C27.6085 27.5211 27.7061 27.5017 27.7972 27.464C27.8882 27.4263 27.9709 27.371 28.0406 27.3013C28.1103 27.2317 28.1656 27.1489 28.2033 27.0579C28.241 26.9669 28.2604 26.8693 28.2604 26.7707C28.2604 26.6722 28.241 26.5746 28.2033 26.4836C28.1656 26.3925 28.1103 26.3098 28.0406 26.2401ZM10.26 16.2707C10.26 14.9357 10.6559 13.6307 11.3976 12.5206C12.1393 11.4106 13.1935 10.5454 14.4269 10.0345C15.6603 9.52364 17.0175 9.38997 18.3268 9.65042C19.6362 9.91087 20.8389 10.5537 21.783 11.4978C22.727 12.4418 23.3698 13.6445 23.6303 14.9539C23.8907 16.2632 23.7571 17.6204 23.2462 18.8538C22.7353 20.0872 21.8701 21.1414 20.7601 21.8831C19.65 22.6248 18.345 23.0207 17.01 23.0207C15.2204 23.0187 13.5046 22.3069 12.2392 21.0415C10.9738 19.7761 10.262 18.0603 10.26 16.2707Z" fill="black"/>
</svg>
