<svg width="17" height="19" viewBox="0 0 17 19" fill="none" xmlns="http://www.w3.org/2000/svg">
<path d="M15.25 0.5H11.5C11.1022 0.5 10.7206 0.658035 10.4393 0.93934C10.158 1.22064 10 1.60218 10 2V17C10 17.3978 10.158 17.7794 10.4393 18.0607C10.7206 18.342 11.1022 18.5 11.5 18.5H15.25C15.6478 18.5 16.0294 18.342 16.3107 18.0607C16.592 17.7794 16.75 17.3978 16.75 17V2C16.75 1.60218 16.592 1.22064 16.3107 0.93934C16.0294 0.658035 15.6478 0.5 15.25 0.5ZM15.25 17H11.5V2H15.25V17ZM5.5 0.5H1.75C1.35218 0.5 0.970644 0.658035 0.68934 0.93934C0.408035 1.22064 0.25 1.60218 0.25 2V17C0.25 17.3978 0.408035 17.7794 0.68934 18.0607C0.970644 18.342 1.35218 18.5 1.75 18.5H5.5C5.89782 18.5 6.27936 18.342 6.56066 18.0607C6.84196 17.7794 7 17.3978 7 17V2C7 1.60218 6.84196 1.22064 6.56066 0.93934C6.27936 0.658035 5.89782 0.5 5.5 0.5ZM5.5 17H1.75V2H5.5V17Z" fill="black"/>
</svg>
