<svg width="14" height="21" viewBox="0 0 14 21" fill="none" xmlns="http://www.w3.org/2000/svg">
<path d="M13.3291 0.825908C13.2029 0.76445 13.0621 0.739602 12.9226 0.754185C12.783 0.768769 12.6504 0.8222 12.5397 0.908408L5.99219 5.99997H1.75C1.35218 5.99997 0.970644 6.15801 0.68934 6.43931C0.408035 6.72061 0.25 7.10215 0.25 7.49997V13.5C0.25 13.8978 0.408035 14.2793 0.68934 14.5606C0.970644 14.8419 1.35218 15 1.75 15H5.99219L12.5397 20.0915C12.6505 20.1777 12.7832 20.231 12.9228 20.2454C13.0624 20.2599 13.2033 20.2349 13.3293 20.1732C13.4554 20.1116 13.5617 20.0158 13.6361 19.8968C13.7104 19.7778 13.7499 19.6403 13.75 19.5V1.49997C13.75 1.35947 13.7106 1.22178 13.6361 1.1026C13.5617 0.983428 13.4553 0.887555 13.3291 0.825908ZM1.75 7.49997H5.5V13.5H1.75V7.49997ZM12.25 17.9662L7 13.8834V7.11653L12.25 3.03372V17.9662Z" fill="black"/>
</svg>
